<svg height="418pt" viewBox="-4 0 418 418.00006" width="418pt" xmlns="http://www.w3.org/2000/svg"><path d="m376.199219 0h-342.398438c-18.628906 0-33.7460935 15.070312-33.800781 33.699219v31.101562c-.0898438 14.933594 9.6875 28.132813 24 32.398438v183.5c0 21.300781 17.601562 38.199219 38.800781 38.199219h132.199219v35.800781l-58.800781 45.300781c-3.371094 2.617188-4.710938 7.085938-3.332031 11.125 1.375 4.039062 5.164062 6.761719 9.433593 6.773438 2.210938-.007813 4.355469-.746094 6.101563-2.097657l56.199218-43.199219 56.699219 43.296876c1.738281 1.367187 3.886719 2.109374 6.101563 2.101562 3.117187-.027344 6.058594-1.460938 8-3.898438 1.621094-2.105468 2.332031-4.769531 1.976562-7.398437-.359375-2.632813-1.753906-5.007813-3.878906-6.601563l-58.5-44.5v-36.601562h131.699219c10.164062.074219 19.933593-3.925781 27.128906-11.101562 7.195313-7.175782 11.21875-16.9375 11.171875-27.097657v-183.402343c14.828125-3.773438 25.152344-17.199219 25-32.5v-31.199219c-.054688-18.628907-15.171875-33.699219-33.800781-33.699219zm-29.5 299h-283.898438c-10.199219 0-18.800781-8-18.800781-18.199219v-181.800781h321v181.800781c.027344 4.851563-1.894531 9.511719-5.335938 12.933594-3.441406 3.421875-8.109374 5.320313-12.964843 5.265625zm43.300781-233.800781c-.015625 7.617187-6.183594 13.785156-13.800781 13.800781h-342.398438c-7.617187-.015625-13.785156-6.183594-13.800781-13.800781v-31.398438c.015625-7.617187 6.183594-13.785156 13.800781-13.800781h342.398438c7.617187.015625 13.785156 6.183594 13.800781 13.800781zm0 0"/><path d="m93 157h90c5.523438 0 10-4.476562 10-10s-4.476562-10-10-10h-90c-5.523438 0-10 4.476562-10 10s4.476562 10 10 10zm0 0"/><path d="m317 187h-224c-5.523438 0-10 4.476562-10 10s4.476562 10 10 10h224c5.523438 0 10-4.476562 10-10s-4.476562-10-10-10zm0 0"/><path d="m317 237h-224c-5.523438 0-10 4.476562-10 10s4.476562 10 10 10h224c5.523438 0 10-4.476562 10-10s-4.476562-10-10-10zm0 0"/></svg>