<?xml version="1.0" encoding="iso-8859-1"?>
<!-- Generator: Adobe Illustrator 19.0.0, SVG Export Plug-In . SVG Version: 6.00 Build 0)  -->
<svg version="1.1" id="Capa_1" xmlns="http://www.w3.org/2000/svg" xmlns:xlink="http://www.w3.org/1999/xlink" x="0px" y="0px"
	 viewBox="0 0 512 512" style="enable-background:new 0 0 512 512;" xml:space="preserve">
<polyline style="fill:#EA6B65;" points="281.633,42.667 281.625,426.667 366.958,426.667 384.025,426.667 384.025,129.067 
	384.025,42.667 281.633,42.667 "/>
<polygon style="fill:#6CBAE5;" points="108.33,425.318 8.49,402.5 79.461,88.67 179.301,111.488 "/>
<polyline style="fill:#F7BA61;" points="281.625,426.667 196.292,426.667 196.292,0 281.625,0 281.625,179.2 281.625,298.667 
	281.625,426.667 358.425,426.667 "/>
<g>
	<rect x="221.91" y="384" style="fill:#277BAA;" width="34.13" height="17.07"/>
	<rect x="221.91" y="25.6" style="fill:#277BAA;" width="34.13" height="17.07"/>
	<rect x="221.91" y="59.733" style="fill:#277BAA;" width="34.13" height="17.07"/>
	<rect x="221.91" y="93.87" style="fill:#277BAA;" width="34.13" height="17.07"/>
</g>
<rect x="281.639" y="42.667" style="fill:#DC4D41;" width="102.39" height="42.667"/>
<g>
	<polygon style="fill:#3B869E;" points="167.414,164.053 179.301,111.488 79.461,88.67 67.941,139.622 71.978,140.561 	"/>
	<polygon style="fill:#3B869E;" points="21.017,347.102 8.49,402.5 108.33,425.318 120.49,371.567 28.176,348.851 	"/>
</g>
<polygon style="fill:#EA9D2D;" points="196.292,233.566 221.968,120.021 196.292,114.15 "/>
<rect x="281.639" y="42.667" style="fill:#DC4D41;" width="42.667" height="384"/>
<rect x="281.639" y="42.667" style="fill:#C7463B;" width="42.658" height="42.667"/>
<polygon style="fill:#DC4D41;" points="281.625,384 281.625,426.667 366.958,426.667 384.025,426.667 384.025,384 "/>
<rect x="349.909" y="409.6" style="fill:#4799CF;" width="68.27" height="102.4"/>
<rect x="366.979" y="349.87" style="fill:#B9B9B9;" width="34.13" height="68.27"/>
<rect x="366.979" y="392.53" style="fill:#6C7175;" width="34.13" height="17.07"/>
<rect x="349.909" y="469.33" style="fill:#277BAA;" width="68.27" height="17.07"/>
<circle style="fill:#6FBBC6;" cx="384.039" cy="238.93" r="119.47"/>
<circle style="fill:#D9D9D9;" cx="384.039" cy="238.93" r="85.33"/>
<path style="fill:#F0F0F0;" d="M384.025,153.6c-14.071,0-27.315,3.465-39.023,9.506c-2.347,7.799-3.644,16.06-3.644,24.627
	c0,47.13,38.204,85.333,85.333,85.333c14.071,0,27.315-3.465,39.023-9.506c2.347-7.799,3.644-16.06,3.644-24.627
	C469.358,191.804,431.154,153.6,384.025,153.6z"/>
<rect x="349.909" y="409.6" style="fill:#DBDBDB;" width="68.27" height="34.13"/>
<rect x="281.639" y="384" style="fill:#C7463B;" width="42.667" height="42.667"/>
<g>
</g>
<g>
</g>
<g>
</g>
<g>
</g>
<g>
</g>
<g>
</g>
<g>
</g>
<g>
</g>
<g>
</g>
<g>
</g>
<g>
</g>
<g>
</g>
<g>
</g>
<g>
</g>
<g>
</g>
</svg>
